<?xml version="1.0" encoding="UTF-8"?>
<svg width="700px" height="256px" viewBox="0 0 700 256" version="1.1" xmlns="http://www.w3.org/2000/svg" xmlns:xlink="http://www.w3.org/1999/xlink">
    <!-- Generator: Sketch 57.1 (83088) - https://sketch.com -->
    <title>Group 2</title>
    <desc>Created with Sketch.</desc>
    <defs>
        <rect id="path-1" x="0" y="0" width="700" height="256"></rect>
    </defs>
    <g id="Latest" stroke="none" stroke-width="1" fill="none" fill-rule="evenodd">
        <g id="Template_CreditVsDebitGetTheMostFromYourCards_V2-Copy" transform="translate(-333.000000, -532.000000)">
            <g id="Group-2" transform="translate(333.000000, 532.000000)">
                <mask id="mask-2" fill="white">
                    <use xlink:href="#path-1"></use>
                </mask>
                <use id="Rectangle" fill="#F8F7F4" xlink:href="#path-1"></use>
                <g id="Group" mask="url(#mask-2)">
                    <g transform="translate(109.000000, -20.000000)">
                        <g id="Group-296" stroke-width="1" fill="none" transform="translate(162.200322, 148.431613) rotate(-28.000000) translate(-162.200322, -148.431613) translate(31.700322, 49.931613)">
                            <polygon id="Fill-278" fill="#98917B" points="23.0067771 45.2692199 251.004651 102.627742 259.256469 69.8588472 31.2548914 12.4984745"></polygon>
                            <polygon id="Fill-280" fill="#FBF8F3" points="221.457703 130.040595 36.0556457 83.3971168 41.5229143 61.6727317 226.926823 108.31621"></polygon>
                            <polygon id="Fill-282" fill="#98917B" points="68.693184 104.921046 33.0809554 95.9606857 35.2119497 87.4926733 70.8260297 96.4530335"></polygon>
                            <polygon id="Fill-284" fill="#D0C9B9" points="218.971975 122.955043 205.704638 119.617814 207.835632 111.149801 221.102969 114.487031"></polygon>
                            <polygon id="Fill-286" fill="#98917B" points="81.1020137 119.788284 30.3006651 107.007601 32.4316594 98.5414398 83.233008 111.322123"></polygon>
                            <polygon id="Fill-288" fill="#D0C9B9" points="124.149209 161.154942 23.0686149 135.724991 25.2014606 127.25883 126.280203 152.686929"></polygon>
                            <path d="M54.634176,83.2033242 C58.3185189,84.9913242 62.6712274,84.2620571 66.298176,82.3981689 C68.6069074,81.2098708 71.9135589,78.7222186 71.6710217,75.6256099 C71.495136,73.3878335 69.3197074,72.236554 67.4460617,71.8441565 C64.9096046,71.3129391 62.1176503,71.7867776 59.9033417,73.2878832 C59.6571017,73.4526161 59.494176,73.863523 59.688576,74.1319081 C61.166016,76.1531255 63.5969417,76.7324671 65.8686446,77.2951503 C66.9387703,77.5579826 68.3088274,77.7116099 69.2234331,78.3946037 C70.3694674,79.2460323 69.615936,80.6805043 68.7790903,81.5856099 C66.2685531,84.3027776 54.6619474,86.6941814 55.1618331,80.5953615 C54.9692846,80.8100696 54.776736,81.0192248 54.582336,81.2339329 C57.5686903,80.9303801 61.0956617,81.8947155 64.7059474,82.8812621 C71.4284846,84.7155354 78.454656,86.6275478 82.8647589,80.6157217 C82.6296274,80.6564422 82.394496,80.6934609 82.1593646,80.7323304 C84.1163246,82.0687031 85.9936731,83.5512994 88.1320731,84.5822683 L88.1320731,83.5198335 C85.6437531,84.7414484 82.8814217,84.8191876 80.3134903,85.7613118 C79.9265417,85.9038335 79.7025189,86.4831752 80.0524389,86.7922807 C85.4437989,91.5288149 91.933056,92.1155602 98.7389074,90.5922435 C105.542907,89.0652248 112.258039,85.811287 119.295319,86.1574112 C119.19349,85.7798211 119.093513,85.4003801 118.995387,85.0209391 C114.109467,88.8246037 106.703753,87.5955851 101.227227,86.6293988 C101.177239,87.0329019 101.129102,87.436405 101.080965,87.8399081 C105.866907,87.5419081 111.082382,89.1374112 115.386953,91.093846 C115.933125,91.3418708 119.263845,92.6912 119.074999,93.6351752 C118.812096,94.9493366 113.278176,94.586554 112.513536,94.5810012 C111.826656,94.5735975 111.765559,95.6008646 112.369125,95.7915106 C117.810473,97.5258335 123.899822,97.9330385 129.57445,98.2865665 C133.066245,98.5105292 136.595067,98.6030758 140.101673,98.2736099 C142.425216,98.0589019 145.172736,97.7664547 147.181536,96.3393863 C148.40533,95.4694484 149.256987,93.9239205 148.085033,92.6578832 C146.866793,91.3474236 144.574725,91.0771876 142.904736,91.1160571 C141.48469,91.1512248 139.251867,91.5084547 138.877879,93.2946037 C138.383547,95.6841565 141.54949,97.9626534 143.147273,98.8973739 C147.10933,101.212889 151.939707,101.705237 156.353513,102.56592 C160.658085,103.404393 166.17349,104.328007 168.602565,108.577747 C168.721056,108.274194 168.835845,107.974343 168.954336,107.668939 C166.456759,108.694355 163.572233,108.351933 161.033925,107.857734 C158.443776,107.35243 155.859182,106.55838 153.528233,105.292343 C153.481947,105.668082 153.43381,106.04197 153.389376,106.415858 C158.030907,105.492243 162.605787,106.700902 167.173262,107.904007 C172.647936,109.349585 178.10965,110.791461 183.65653,108.551834 C184.269353,108.301958 184.186039,107.343175 183.493605,107.350579 C181.877307,107.361684 180.360987,107.720765 178.800233,108.190902 C178.392919,108.313063 178.211479,108.920169 178.542885,109.223722 C181.779182,112.181511 185.856027,113.864007 189.901399,115.296629 C190.604942,115.548355 190.903022,114.354504 190.199479,114.102778 C186.359616,112.744194 182.447547,111.143138 179.374176,108.335275 L179.114976,109.366243 C180.579456,108.92202 181.980987,108.590703 183.506565,108.575896 C183.452873,108.176094 183.401033,107.776293 183.347342,107.374641 C177.872667,109.588355 172.414656,108.157585 166.928873,106.724964 C162.335479,105.520007 157.725422,104.316902 153.076485,105.242368 C152.569193,105.340467 152.521056,106.14192 152.935776,106.365883 C155.501856,107.761486 158.364165,108.635125 161.22277,109.144132 C163.820325,109.601312 166.723365,109.888206 169.265376,108.846132 C169.611593,108.701759 169.817102,108.292703 169.615296,107.937324 C166.245696,102.032852 157.90501,101.664517 152.100782,100.502132 C148.61269,99.8061814 144.77653,99.0250882 142.017902,96.5652 C140.782999,95.4657466 138.772347,93.3020075 141.347685,92.5486783 C142.938062,92.0840944 145.063502,92.2765913 146.522427,93.0373242 C148.346085,93.9942559 146.935296,95.2565913 145.576347,95.8636969 C143.373147,96.8502435 140.825582,97.0371876 138.479822,97.1667528 C135.436073,97.3351876 132.38677,97.2463429 129.355982,97.0501441 C123.853536,96.6910634 117.953033,96.2783056 112.670907,94.5976596 C112.62277,95.0030137 112.572782,95.4065168 112.526496,95.8100199 C114.270542,95.8248273 118.741742,96.3375354 119.998862,94.3866534 C120.94309,92.9225665 118.962062,91.6472745 117.98821,91.0549764 C115.522107,89.5594236 112.670907,88.6172994 109.912279,87.8602683 C107.070336,87.0773242 104.046953,86.4294981 101.069856,86.6127404 C100.434816,86.6516099 100.253376,87.7047901 100.923593,87.8251006 C106.707456,88.843113 114.426062,90.0813863 119.584142,86.0667155 C120.063662,85.6928273 119.887776,84.9598584 119.280507,84.9302435 C106.290885,84.2861193 92.5477303,96.1524422 80.8855817,85.9056845 L80.6245303,86.9385043 C83.2942903,85.9575106 86.1288274,85.8353491 88.7208274,84.5674609 C89.1133303,84.373113 89.094816,83.6882683 88.7208274,83.506877 C86.5842789,82.4740571 84.7069303,80.9951627 82.7481189,79.6532373 C82.5574217,79.523672 82.1889874,79.5643925 82.0390217,79.767995 C78.6953417,84.3249888 73.192896,83.5309391 68.5384046,82.4462932 C67.4219931,82.1871627 66.3000274,81.8799081 65.170656,81.5689516 C61.697376,80.6157217 58.1518903,79.6439826 54.569376,80.0030634 C54.232416,80.0382311 54.0195017,80.2918087 53.9898789,80.6379329 C53.3881646,87.978728 65.4798446,85.6632124 68.8809189,83.0700571 C70.6953189,81.6818584 72.0875931,78.6852 69.7140617,77.2562807 C68.6106103,76.5917963 67.283136,76.3141565 65.9464046,76.0365168 C63.952416,75.6182062 61.9528731,75.2017466 60.7031589,73.4896348 L60.4902446,74.3336596 C62.2713189,73.1287031 64.4467474,72.669672 66.5166446,72.9306534 C68.0125989,73.1212994 70.2787474,73.809846 70.5009189,75.6681814 C70.7971474,78.1558335 67.7330331,80.2881068 65.9445531,81.2265292 C62.6638217,82.9497466 58.5980846,83.7623056 55.2247817,82.126082 C54.5527131,81.800318 53.9584046,82.8738584 54.634176,83.2033242" id="Fill-290" fill="#D0C9B9"></path>
                            <path d="M229.596768,187.682494 C228.067488,193.759103 222.102185,197.544258 216.340539,196.094979 L8.94165943,143.915364 C3.18186514,142.467935 -0.278454857,136.311737 1.24897371,130.235128 L31.8345737,8.73071801 C33.3638537,2.65596025 39.3273051,-1.12919503 45.0889509,0.320084472 L252.487831,52.4978484 C258.247625,53.947128 261.711648,60.1033267 260.182368,66.1780845 L229.596768,187.682494 Z" id="Fill-292" fill="#A93641"></path>
                            <polygon id="Fill-294" fill="#8E2933" points="250.78859 103.358489 22.4741211 45.9203776 30.7222354 13.1477814 259.038555 70.5877441"></polygon>
                            <path d="M66.6535122,45.1476192 C69.5047122,45.1476192 72.1337408,45.9620292 73.8370551,47.1836441 L72.2818551,50.1451348 C70.4304265,48.8494826 68.6530551,48.4422776 66.6164837,48.4422776 C62.0989979,48.4422776 59.6921408,52.2922155 59.6921408,58.4743273 C59.6921408,63.5088615 60.8400265,67.9881161 66.5424265,67.9881161 C67.6903122,67.9881161 69.9120265,67.8400416 72.9483694,66.285259 L74.2073408,69.2837683 C72.2077979,70.6164391 68.5419694,71.3197932 66.2091694,71.3197932 C58.0999122,71.3197932 55.1746551,66.2112217 55.1746551,58.4373087 C55.1746551,52.9585509 57.6185408,45.1476192 66.6535122,45.1476192 Z M81.6945179,52.847495 L81.8426322,56.4383025 C81.8796608,56.4383025 81.9166894,56.4383025 81.9537179,56.4753211 C83.6570322,53.4027745 86.3971465,52.4402901 88.8780608,52.4402901 L88.8780608,56.2902279 C86.7674322,56.3272466 84.1013751,56.993582 81.9537179,59.7699795 L81.9537179,70.9866255 L77.7694894,70.9866255 L77.7694894,52.847495 L81.6945179,52.847495 Z M98.9572379,52.4773087 C106.474038,52.4773087 106.770267,58.4743273 106.770267,61.2137062 L106.770267,62.8795447 L94.7730094,62.8795447 C94.7359808,65.9520913 95.9579237,68.1732093 99.6237522,68.1732093 C101.660324,68.1732093 103.474724,67.7289857 105.437238,66.9515944 L106.325924,69.5428988 C104.067181,70.8015323 101.586267,71.2827745 99.1053522,71.2827745 C92.2180379,71.2827745 90.5517522,67.0256317 90.5517522,61.9910975 C90.5517522,58.4002901 91.9588379,52.4773087 98.9572379,52.4773087 Z M99.1053522,55.2537062 C96.0319808,55.2537062 95.0322094,57.6599174 94.8100379,60.2882404 L102.919295,60.2882404 C102.919295,57.3267497 102.030609,55.2537062 99.1053522,55.2537062 Z M117.293787,52.4773087 C118.552758,52.4773087 120.663387,52.7364391 122.255615,53.6989236 L122.255615,44.5923397 L126.439844,44.5923397 L126.439844,70.9866255 L122.625901,70.9866255 L122.477787,69.2837683 C122.440758,69.2837683 122.403729,69.2467497 122.366701,69.2467497 C120.663387,70.6164391 118.404644,71.2457559 116.701329,71.2457559 C111.295158,71.2457559 109.702929,67.1366876 109.702929,62.3242652 C109.702929,56.7344515 111.739501,52.4773087 117.293787,52.4773087 Z M122.255615,66.5814081 L122.255615,56.7344515 C121.329901,56.1421534 119.515501,55.5868739 118.108415,55.5868739 C115.960758,55.5868739 113.924187,56.9565633 113.924187,62.2872466 C113.924187,66.988613 115.664529,68.2842652 117.997329,68.2842652 C119.256301,68.2842652 121.292872,67.395818 122.255615,66.5814081 Z M135.408164,70.9866255 L131.260964,70.9866255 L131.260964,52.847495 L135.408164,52.847495 L135.408164,70.9866255 Z M135.926564,47.9610354 C135.926564,49.2566876 134.889764,50.3672466 133.334564,50.3672466 C131.816392,50.3672466 130.816621,49.2566876 130.816621,47.9610354 C130.816621,46.591346 131.853421,45.5548242 133.334564,45.5548242 C134.889764,45.5548242 135.926564,46.591346 135.926564,47.9610354 Z M142.895341,48.405259 L145.635455,48.0720913 L145.635455,52.847495 L151.004598,52.847495 L151.004598,55.6979298 L145.635455,55.6979298 L145.635455,65.2117186 C145.635455,67.0256317 146.153855,68.099172 148.116369,68.099172 C148.856941,68.099172 150.004827,67.8770602 151.374884,67.5438925 L151.967341,70.2832714 C150.523227,70.9496068 148.634769,71.2827745 147.116598,71.2827745 C142.969398,71.2827745 141.525284,69.2837683 141.525284,66.3592963 L141.525284,55.6979298 L138.933284,55.6979298 L138.933284,53.4397932 L141.784484,52.5883646 C141.895569,52.2922155 142.784255,48.7384267 142.895341,48.405259 Z M172.681124,52.4402901 C174.717695,52.4402901 176.865352,52.9215323 178.568667,54.0691099 L177.124552,56.9195447 C175.384209,55.9200416 174.014152,55.6979298 172.829238,55.6979298 C169.755867,55.6979298 168.385809,58.104141 168.385809,62.0651348 C168.385809,65.3597932 169.237467,68.099172 172.681124,68.099172 C174.051181,68.099172 175.458267,67.9510975 177.865124,66.6554453 L179.013009,69.4318428 C177.235638,70.6164391 174.902838,71.3197932 172.495981,71.3197932 C166.275181,71.3197932 164.090495,67.6179298 164.090495,62.1021534 C164.090495,58.2151969 165.682724,52.4402901 172.681124,52.4402901 Z M190.054929,52.4773087 C194.165101,52.4773087 196.683044,54.1061286 196.683044,58.6594205 L196.683044,70.9866255 L193.017215,70.9866255 L192.832072,69.0986751 C192.832072,69.0986751 192.795044,69.0616565 192.758015,69.0616565 C190.091958,71.2457559 187.648072,71.2827745 186.537215,71.2827745 C182.204872,71.2827745 181.056987,68.2842652 181.056987,66.1371845 C181.056987,62.546377 183.834129,60.6954453 187.499958,60.4733335 C189.129215,60.3622776 191.091729,60.2882404 192.720987,60.1771845 L192.720987,59.3257559 C192.720987,56.8084888 191.980415,55.6238925 189.092187,55.6238925 C187.277787,55.6238925 185.093101,56.0310975 183.352758,56.586377 C183.130587,55.6979298 182.871387,54.8094826 182.612187,53.958054 C184.722815,53.0325882 187.648072,52.4773087 190.054929,52.4773087 Z M192.720987,62.6204143 L188.536758,62.9165633 C186.426129,63.0646379 185.426358,64.1011596 185.426358,65.7669981 C185.426358,67.6179298 186.315044,68.5433956 188.351615,68.5433956 C189.684644,68.5433956 191.276872,67.8400416 192.720987,66.5814081 L192.720987,62.6204143 Z M204.947821,52.847495 L205.095935,56.4383025 C205.132964,56.4383025 205.169992,56.4383025 205.207021,56.4753211 C206.910335,53.4027745 209.650449,52.4402901 212.131364,52.4402901 L212.131364,56.2902279 C210.020735,56.3272466 207.354678,56.993582 205.207021,59.7699795 L205.207021,70.9866255 L201.022792,70.9866255 L201.022792,52.847495 L204.947821,52.847495 Z M221.321855,52.4773087 C222.580827,52.4773087 224.691455,52.7364391 226.283684,53.6989236 L226.283684,44.5923397 L230.467912,44.5923397 L230.467912,70.9866255 L226.653969,70.9866255 L226.505855,69.2837683 C226.468827,69.2837683 226.431798,69.2467497 226.394769,69.2467497 C224.691455,70.6164391 222.432712,71.2457559 220.729398,71.2457559 C215.323227,71.2457559 213.730998,67.1366876 213.730998,62.3242652 C213.730998,56.7344515 215.767569,52.4773087 221.321855,52.4773087 Z M226.283684,66.5814081 L226.283684,56.7344515 C225.357969,56.1421534 223.543569,55.5868739 222.136484,55.5868739 C219.988827,55.5868739 217.952255,56.9565633 217.952255,62.2872466 C217.952255,66.988613 219.692598,68.2842652 222.025398,68.2842652 C223.284369,68.2842652 225.320941,67.395818 226.283684,66.5814081 Z" id="Creditcard" fill="#FFFFFF" fill-rule="nonzero" transform="translate(142.821284, 57.956066) rotate(14.000000) translate(-142.821284, -57.956066) "></path>
                        </g>
                        <polygon id="Fill-297" fill="#8E2933" transform="translate(79.886159, 213.973847) rotate(-28.000000) translate(-79.886159, -213.973847) " points="92.9610408 221.767259 64.6813505 214.648711 66.8094251 206.180434 95.090967 213.300834"></polygon>
                        <polygon id="Fill-298" fill="#8E2933" transform="translate(95.616750, 186.819409) rotate(-28.000000) translate(-95.616750, -186.819409) " points="114.033959 197.719463 74.2331873 187.699051 77.1958383 175.919355 117.000312 185.936065"></polygon>
                        <polygon id="Fill-299" fill="#8E2933" transform="translate(144.898672, 174.648978) rotate(-28.000000) translate(-144.898672, -174.648978) " points="163.317733 185.549958 123.51511 175.529546 126.479612 163.747998 166.282235 173.766559"></polygon>
                        <polygon id="Fill-300" fill="#8E2933" transform="translate(192.434271, 162.909380) rotate(-28.000000) translate(-192.434271, -162.909380) " points="210.854257 173.811285 171.049783 163.790873 174.016136 152.007475 213.818759 162.027887"></polygon>
                        <polygon id="Fill-301" fill="#8E2933" transform="translate(241.719407, 150.738289) rotate(-28.000000) translate(-241.719407, -150.738289) " points="260.138467 161.640194 220.333993 151.619782 223.300346 139.836384 263.104821 149.856796"></polygon>
                        <polygon id="Fill-302" fill="#8E2933" transform="translate(73.286803, 229.291825) rotate(-28.000000) translate(-73.286803, -229.291825) " points="76.5864466 234.624116 67.8572327 232.425959 69.9890102 223.959534 78.7163725 226.15584"></polygon>
                        <polygon id="Fill-303" fill="#8E2933" transform="translate(85.695458, 226.227240) rotate(-28.000000) translate(-85.695458, -226.227240) " points="88.9951021 231.559531 80.2658883 229.361374 82.3976657 220.894949 91.125028 223.091255"></polygon>
                        <polygon id="Fill-304" fill="#8E2933" transform="translate(115.626561, 205.149249) rotate(-28.000000) translate(-115.626561, -205.149249) " points="132.630052 213.930629 96.4931436 204.834294 98.624921 196.367869 134.759978 205.464203"></polygon>
                        <polygon id="Fill-305" fill="#8E2933" transform="translate(233.525628, 182.875803) rotate(-28.000000) translate(-233.525628, -182.875803) " points="264.706754 202.079197 196.972499 185.029125 202.344501 163.67241 270.078757 180.722482"></polygon>
                    </g>
                </g>
                <g id="Group-381" mask="url(#mask-2)">
                    <g transform="translate(443.500000, 143.500000) rotate(18.000000) translate(-443.500000, -143.500000) translate(321.000000, 70.000000)">
                        <polygon id="Fill-351" fill="#98917B" fill-rule="evenodd" points="1.10871295 49.1800672 243.108713 49.1800672 243.108713 16.1800672 1.10871295 16.1800672"></polygon>
                        <polygon id="Fill-353" fill="#FBF8F3" fill-rule="evenodd" points="23.9506833 81.9473255 220.950683 81.9473255 220.950683 59.9473255 23.9506833 59.9473255"></polygon>
                        <polygon id="Fill-354" fill="#98917B" fill-rule="evenodd" points="24.2399838 95.4013997 62.2399838 95.4013997 62.2399838 86.4013997 24.2399838 86.4013997"></polygon>
                        <polygon id="Fill-355" fill="#D0C9B9" fill-rule="evenodd" points="202.410813 76.1074777 216.410813 76.1074777 216.410813 67.1074777 202.410813 67.1074777"></polygon>
                        <polygon id="Fill-356" fill="#98917B" fill-rule="evenodd" points="24.0614308 106.529066 78.0614308 106.529066 78.0614308 97.5290664 24.0614308 97.5290664"></polygon>
                        <polygon id="Fill-357" fill="#D0C9B9" fill-rule="evenodd" points="24.3784751 135.668321 131.378475 135.668321 131.378475 126.668321 24.3784751 126.668321"></polygon>
                        <path d="M41.9172593,77.5628229 C46.048656,78.3655499 50.2080677,76.6657515 53.3605854,74.0800752 C55.3710776,72.4330457 58.0456914,69.3420672 57.0239659,66.5149331 C56.2873347,64.4697383 53.8253057,63.9084691 51.8527163,63.9820257 C49.189638,64.0827663 46.5232639,65.1765218 44.6858059,67.0953911 C44.4847567,67.3064667 44.4237827,67.7270189 44.6858059,67.9316983 C46.6666351,69.4667937 49.2407243,69.4380106 51.6500191,69.4284163 C52.7871007,69.4220201 54.1927974,69.2461237 55.2754968,69.6666759 C56.635051,70.1927659 56.2411923,71.7022764 55.6347487,72.7416639 C53.8104742,75.8614255 42.8219807,80.8057119 41.7903675,75.0107268 C41.6519402,75.2537835 41.5118649,75.4968403 41.3717896,75.738298 C44.2787636,74.7596747 48.0410208,74.8300332 51.8955628,74.9019908 C59.065769,75.0363117 66.5622683,75.1690335 69.4577067,68.5409393 C69.2302903,68.6304865 69.0045219,68.7216328 68.7804015,68.81118 C71.0710443,69.6011145 73.3188405,70.5397614 75.7116558,70.998691 C75.6210188,70.667686 75.5320298,70.3398792 75.4463367,70.0120724 C73.2661062,71.7278613 70.5255747,72.4506354 68.2003251,73.9297638 C67.8493129,74.1520328 67.7718595,74.7452832 68.2003251,74.9515616 C74.7739754,78.0969082 81.398712,77.1246811 87.8108638,74.1120563 C94.2213677,71.0946344 100.109473,66.4893482 107.222001,65.1653284 C107.027544,64.8375216 106.833086,64.5065166 106.638629,64.1787098 C102.714873,68.8623499 95.012381,69.4540012 89.3006056,69.836176 C89.3533398,70.224747 89.4044261,70.6133181 89.4604562,70.998691 C94.1603937,69.6011145 99.7699966,69.86336 104.562219,70.6756813 C105.170311,70.7812191 108.832043,71.2577383 108.881481,72.1787956 C108.950695,73.466037 103.3345,74.4254716 102.569854,74.5981699 C101.882661,74.7516794 102.078767,75.7223075 102.728057,75.7590858 C108.596387,76.0996851 114.777827,75.0523023 120.534096,74.0544903 C124.077177,73.4420512 127.625201,72.7000884 131.039742,71.5743517 C133.307314,70.8291908 135.978632,69.9113317 137.624928,68.1139908 C138.631822,67.0170373 139.091599,65.376404 137.601857,64.4745355 C136.054437,63.5374877 133.697877,63.823719 132.041692,64.2506674 C130.6327,64.6168516 128.49202,65.4723475 128.571122,67.2217166 C128.67659,69.5627371 132.410832,70.9459221 134.24005,71.44163 C138.776841,72.6681072 143.725619,71.996503 148.348103,71.7630406 C152.858527,71.5359744 158.596669,71.1026297 162.090311,74.4942311 C162.129862,74.1824149 162.171061,73.8737967 162.210611,73.5651786 C159.979295,75.1050712 157.011347,75.4584629 154.353212,75.5943828 C151.639048,75.7303027 148.860613,75.5959819 146.210719,74.9643541 C146.258509,75.3241421 146.307947,75.6839301 146.355738,76.0453171 C150.759045,74.0960658 155.630369,74.1488347 160.495101,74.2000045 C166.322233,74.2639668 172.139476,74.3263301 177.114621,70.9395258 C177.661738,70.5669454 177.338741,69.6922608 176.651548,69.8617609 C175.036563,70.2487329 173.614387,70.9379268 172.175731,71.7406537 C171.798352,71.9533284 171.770337,72.5577722 172.175731,72.7640507 C176.152221,74.7612738 180.646166,75.3721138 185.044529,75.7590858 C185.810824,75.8294443 185.809176,74.6461416 185.044529,74.5773821 C180.86699,74.2111979 176.557616,73.6387352 172.782175,71.7406537 L172.782175,72.7640507 C174.131841,72.0076964 175.451845,71.3680733 176.969602,70.998691 C176.814695,70.638903 176.663084,70.2775159 176.508177,69.9177279 C171.598951,73.2597586 165.789947,73.2085887 159.954575,73.1574189 C155.065124,73.1142443 150.157546,73.0726688 145.749294,75.0219202 C145.268095,75.2345948 145.419705,75.9925482 145.891018,76.1028832 C148.802935,76.8000724 151.882943,76.9439875 154.862427,76.7473034 C157.57,76.5650109 160.542891,76.152454 162.818703,74.5853774 C163.130164,74.3695046 163.232337,73.9425562 162.939003,73.659523 C158.092398,68.950298 149.669754,70.5605491 143.582247,70.8371861 C139.925459,71.0066863 135.896235,71.1793845 132.526188,69.5339541 C131.018319,68.7999866 128.465653,67.2552969 130.848581,65.9488667 C132.316899,65.1445407 134.490538,64.8263282 136.135186,65.1957105 C138.196765,65.6546401 137.107474,67.1625515 135.901178,68.0468304 C133.95166,69.4827843 131.451728,70.250332 129.146254,70.9219362 C126.148643,71.7918236 123.081819,72.4250504 120.006754,72.9527395 C114.420223,73.9057779 108.425001,74.905189 102.728057,74.5773821 C102.784087,74.9643541 102.835173,75.3529251 102.889555,75.738298 C104.639672,75.3449298 109.22755,74.7724672 109.993844,72.6649091 C110.568976,71.0786438 108.270094,70.3542707 107.149492,70.031261 C104.310084,69.2157416 101.226779,69.0078641 98.2835507,68.948699 C95.249685,68.8847367 92.0658564,68.9886754 89.140755,69.8617609 C88.5145361,70.0456526 88.5969333,71.0674504 89.3006056,71.0210778 C95.3304343,70.6165162 103.346036,69.9609025 107.488968,65.0118189 C107.871291,64.5528893 107.513688,63.9116672 106.9023,64.0252003 C93.7698309,66.4685605 83.0285291,80.7385515 68.8084166,73.9297638 L68.8084166,74.9515616 C71.227599,73.4148672 74.0258086,72.6361261 76.2933802,70.8483795 C76.6394485,70.5733416 76.4499349,69.9385157 76.0264132,69.8617609 C73.6368937,69.3980342 71.3907455,68.4609864 69.0968068,67.6710519 C68.8726864,67.5942971 68.5183783,67.7174245 68.4195017,67.9428917 C66.2244397,72.9703291 60.5324396,73.522004 55.6116775,73.6003579 C54.4317493,73.6195466 53.2320457,73.5971597 52.0273984,73.5731739 C48.3211713,73.4980182 44.535843,73.4244615 41.0520884,74.5981699 C40.7224995,74.7101039 40.5741845,74.9947362 40.6302146,75.3257411 C41.8744127,82.3008309 53.3655292,77.3133699 56.1093567,74.0992639 C57.5727314,72.3818759 58.2088379,69.2653124 55.4814899,68.4913685 C54.2142206,68.1315805 52.8151158,68.1843494 51.414363,68.2371183 C49.3165298,68.3170712 47.2137527,68.3986231 45.5344973,67.0953911 L45.5344973,67.9316983 C47.0110555,66.3918057 49.0676902,65.4531588 51.2050741,65.2117011 C52.7409583,65.0374038 55.1766202,65.1493378 55.8671089,66.8283484 C56.7866619,69.0750245 54.263659,71.775833 52.7145912,73.0726688 C49.871887,75.4456705 46.017345,77.1550632 42.2369605,76.4210957 C41.4838499,76.2755814 41.1592048,77.4141105 41.9172593,77.5628229" id="Fill-358" fill="#D0C9B9" fill-rule="evenodd"></path>
                        <path d="M243.617661,134.928191 C243.617661,141.104837 238.602856,146.158456 232.471448,146.158456 L11.7638739,146.158456 C5.63576919,146.158456 0.617660781,141.104837 0.617660781,134.928191 L0.617660781,11.3887196 C0.617660781,5.21371619 5.63576919,0.158455516 11.7638739,0.158455516 L232.471448,0.158455516 C238.602856,0.158455516 243.617661,5.21371619 243.617661,11.3887196 L243.617661,134.928191 Z" id="Fill-359" fill="#D87E3B" fill-rule="evenodd"></path>
                        <polygon id="Fill-360" fill="#C36831" fill-rule="evenodd" points="0.133184693 49.3345757 243.133185 49.3345757 243.133185 16.3345757 0.133184693 16.3345757"></polygon>
                        <path d="M46.124204,43.0368054 L39.1830996,43.0368054 L39.1830996,20.2334813 L46.3544776,20.2334813 C54.0850915,20.2334813 56.8154785,25.4523178 56.8154785,31.5686613 C56.8154785,37.7514868 53.6903367,43.0368054 46.124204,43.0368054 Z M45.8610341,23.025725 L43.0648546,23.025725 L43.0648546,40.2113206 L45.7623455,40.2113206 C47.9663928,40.2113206 52.8350348,39.3802957 52.8350348,31.7681073 C52.8350348,24.0229549 48.3940438,23.025725 45.8610341,23.025725 Z M67.3817474,26.4163067 C74.059682,26.4163067 74.3228518,31.8013483 74.3228518,34.2611821 L74.3228518,35.757027 L63.6644735,35.757027 C63.6315773,38.5160297 64.7171528,40.5104896 67.9738796,40.5104896 C69.7831722,40.5104896 71.3950874,40.1115976 73.1385876,39.4135367 L73.9280971,41.7404065 C71.9214271,42.8706004 69.7173797,43.3027333 67.5133323,43.3027333 C61.3946337,43.3027333 59.9143033,39.4800187 59.9143033,34.959243 C59.9143033,31.7348663 61.1643601,26.4163067 67.3817474,26.4163067 Z M67.5133323,28.9093815 C64.7829453,28.9093815 63.8947471,31.0700464 63.6973697,33.4301572 L70.901644,33.4301572 C70.901644,30.7708774 70.1121345,28.9093815 67.5133323,28.9093815 Z M80.908677,27.7459466 L81.1060543,27.8789106 C82.9482432,26.7819577 84.6259509,26.4163067 85.8760076,26.4163067 C90.6459609,26.4163067 92.093395,30.0063344 92.093395,34.959243 C92.093395,39.4800187 90.4485835,43.3027333 84.6917433,43.3027333 C82.5205922,43.3027333 79.6586202,42.8706004 77.322988,41.7736475 L77.322988,19.3359743 L81.0073656,19.3359743 L81.0073656,24.1891599 C80.9744694,25.2196308 80.908677,26.7154757 80.908677,27.7459466 Z M84.8891207,29.3082735 C83.5403753,29.3082735 82.0929412,29.9066115 81.0402619,30.5049494 L81.0402619,39.8789106 C82.2574224,40.4107666 83.5074791,40.5769716 84.494366,40.5769716 C86.8299983,40.5769716 88.3432248,39.3138137 88.3432248,35.025725 C88.3432248,30.2722624 86.8628945,29.3082735 84.8891207,29.3082735 Z M99.7318994,43.0368054 L96.0475217,43.0368054 L96.0475217,26.7487167 L99.7318994,26.7487167 L99.7318994,43.0368054 Z M100.192447,22.3609051 C100.192447,23.52434 99.2713522,24.5215699 97.8897106,24.5215699 C96.5409652,24.5215699 95.652767,23.52434 95.652767,22.3609051 C95.652767,21.1309882 96.5738614,20.2002403 97.8897106,20.2002403 C99.2713522,20.2002403 100.192447,21.1309882 100.192447,22.3609051 Z M106.383517,22.759797 L108.817838,22.4606281 L108.817838,26.7487167 L113.587791,26.7487167 L113.587791,29.3082735 L108.817838,29.3082735 L108.817838,37.8512098 C108.817838,39.4800187 109.278385,40.4440076 111.021885,40.4440076 C111.67981,40.4440076 112.699593,40.2445616 113.916754,39.9453926 L114.443093,42.4052264 C113.16014,43.0035644 111.482433,43.3027333 110.133687,43.3027333 C106.449309,43.3027333 105.166357,41.5077195 105.166357,38.8816807 L105.166357,29.3082735 L102.86362,29.3082735 L102.86362,27.2805727 L105.39663,26.5160297 C105.495319,26.2501018 106.284828,23.058966 106.383517,22.759797 Z M132.845244,26.3830657 C134.654537,26.3830657 136.562518,26.8151987 138.075744,27.8456696 L136.792791,30.4052264 C135.246669,29.5077195 134.029508,29.3082735 132.976829,29.3082735 C130.246442,29.3082735 129.029281,31.4689383 129.029281,35.025725 C129.029281,37.9841738 129.785895,40.4440076 132.845244,40.4440076 C134.062404,40.4440076 135.312461,40.3110436 137.450716,39.1476087 L138.470499,41.6406835 C136.89148,42.7043954 134.819018,43.3359743 132.680763,43.3359743 C127.154196,43.3359743 125.213319,40.0118746 125.213319,35.058966 C125.213319,31.5686613 126.627857,26.3830657 132.845244,26.3830657 Z M148.280155,26.4163067 C151.931636,26.4163067 154.16858,27.8789106 154.16858,31.9675533 L154.16858,43.0368054 L150.911853,43.0368054 L150.747372,41.3415145 C150.747372,41.3415145 150.714476,41.3082735 150.68158,41.3082735 C148.313051,43.2694923 146.1419,43.3027333 145.155013,43.3027333 C141.306154,43.3027333 140.286371,40.6102126 140.286371,38.6822347 C140.286371,35.457858 142.753588,33.7958081 146.010315,33.5963621 C147.457749,33.4966392 149.201249,33.4301572 150.648683,33.3304342 L150.648683,32.5658912 C150.648683,30.3055034 149.990759,29.2417915 147.424853,29.2417915 C145.812938,29.2417915 143.87206,29.6074425 142.325937,30.1060574 C142.12856,29.3082735 141.898286,28.5104896 141.668013,27.7459466 C143.543098,26.9149217 146.1419,26.4163067 148.280155,26.4163067 Z M150.648683,35.52434 L146.931409,35.790268 C145.056324,35.9232319 144.168126,36.8539799 144.168126,38.3498247 C144.168126,40.0118746 144.957636,40.8428995 146.766928,40.8428995 C147.951192,40.8428995 149.36573,40.2113206 150.648683,39.0811267 L150.648683,35.52434 Z M161.511018,26.7487167 L161.642603,29.9730934 C161.675499,29.9730934 161.708396,29.9730934 161.741292,30.0063344 C163.254518,27.2473317 165.688839,26.3830657 167.892887,26.3830657 L167.892887,29.8401295 C166.017802,29.8733705 163.649273,30.4717084 161.741292,32.9647832 L161.741292,43.0368054 L158.024018,43.0368054 L158.024018,26.7487167 L161.511018,26.7487167 Z M176.057731,26.4163067 C177.176203,26.4163067 179.051288,26.6489937 180.465826,27.5132597 L180.465826,19.3359743 L184.1831,19.3359743 L184.1831,43.0368054 L180.794788,43.0368054 L180.663203,41.5077195 C180.630307,41.5077195 180.597411,41.4744785 180.564514,41.4744785 C179.051288,42.7043954 177.044618,43.2694923 175.531391,43.2694923 C170.728542,43.2694923 169.314004,39.5797416 169.314004,35.258412 C169.314004,30.2390214 171.123296,26.4163067 176.057731,26.4163067 Z M180.465826,39.0811267 L180.465826,30.2390214 C179.64342,29.7071655 178.031505,29.2085505 176.781448,29.2085505 C174.873467,29.2085505 173.064174,30.4384674 173.064174,35.225171 C173.064174,39.4467777 174.610297,40.6102126 176.682759,40.6102126 C177.801231,40.6102126 179.610524,39.8124286 180.465826,39.0811267 Z" id="Debitcard" fill="#FFFFFF" fill-rule="nonzero"></path>
                        <polygon id="Fill-361" fill="#C36831" fill-rule="evenodd" points="8.43278071 121.814932 38.4327807 121.814932 38.4327807 112.814932 8.43278071 112.814932"></polygon>
                        <polygon id="Fill-362" fill="#C36831" fill-rule="evenodd" points="24.5816168 100.872137 66.5816168 100.872137 66.5816168 88.872137 24.5816168 88.872137"></polygon>
                        <polygon id="Fill-363" fill="#C36831" fill-rule="evenodd" points="77.0787145 100.638192 119.078714 100.638192 119.078714 88.6381916 77.0787145 88.6381916"></polygon>
                        <polygon id="Fill-364" fill="#C36831" fill-rule="evenodd" points="127.673699 101.02228 169.673699 101.02228 169.673699 89.0222801 127.673699 89.0222801"></polygon>
                        <polygon id="Fill-365" fill="#C36831" fill-rule="evenodd" points="180.170797 100.788335 222.170797 100.788335 222.170797 88.7883346 180.170797 88.7883346"></polygon>
                        <polygon id="Fill-366" fill="#C36831" fill-rule="evenodd" points="8.87467069 134.54617 17.8746707 134.54617 17.8746707 125.54617 8.87467069 125.54617"></polygon>
                        <polygon id="Fill-367" fill="#C36831" fill-rule="evenodd" points="21.5234169 134.642193 30.5234169 134.642193 30.5234169 125.642193 21.5234169 125.642193"></polygon>
                        <polygon id="Fill-368" fill="#C36831" fill-rule="evenodd" points="42.3790192 122.102999 80.3790192 122.102999 80.3790192 113.102999 42.3790192 113.102999"></polygon>
                        <polygon id="Fill-369" fill="#C36831" fill-rule="evenodd" points="148.501775 135.388059 220.501775 135.388059 220.501775 113.388059 148.501775 113.388059"></polygon>
                        <path d="M243.30388,11.6968982 C243.30188,10.6610393 243.14788,9.65641233 242.85988,8.69689816 C243.14788,9.57833251 243.30188,10.5777541 243.30388,11.6968982" id="Fill-370" fill="#DCD6C4" fill-rule="evenodd"></path>
                        <path d="M27.7520255,78.379298 C27.8009239,81.2364408 30.2677629,83.379298 33.3112656,83.379298 L42.7520255,83.379298 L42.7520255,78.379298 L27.7520255,78.379298 Z" id="Fill-371" fill="#C36831" fill-rule="evenodd"></path>
                        <path d="M44.5629582,83.4993256 L52.2913047,83.4993256 C55.1766393,83.4993256 57.5181748,81.3573639 57.5629582,78.4993256 L44.5629582,78.4993256 L44.5629582,83.4993256 Z" id="Fill-372" fill="#C36831" fill-rule="evenodd"></path>
                        <path d="M31.2558383,70.7223686 L27.2722115,70.7223686 L27.2722115,76.7223686 L32.2722115,76.7223686 C31.6620787,74.9561147 31.3145346,72.8415636 31.2558383,70.7223686" id="Fill-373" fill="#C36831" fill-rule="evenodd"></path>
                        <path d="M56.7799404,61.6730368 L56.7799404,61.5461571 C56.7799404,58.6529867 54.4615509,56.6730368 51.5362699,56.6730368 L43.7799404,56.6730368 L43.7799404,61.6730368 L56.7799404,61.6730368 Z" id="Fill-374" fill="#C36831" fill-rule="evenodd"></path>
                        <path d="M32.9622621,63.137922 L27.9622621,63.137922 L27.9622621,69.137922 L31.9471199,69.137922 C32.0058344,67.0202749 32.3503956,64.9041758 32.9622621,63.137922" id="Fill-375" fill="#C36831" fill-rule="evenodd"></path>
                        <path d="M41.9690077,56.5530092 L32.6346372,56.5530092 C29.5993,56.5530092 26.9690077,58.5313926 26.9690077,61.4276959 L26.9690077,61.5530092 L41.9690077,61.5530092 L41.9690077,56.5530092 Z" id="Fill-376" fill="#C36831" fill-rule="evenodd"></path>
                        <path d="M35.02792,76.5093737 L51.7177183,76.5093737 C52.4099739,74.7442124 52.8060084,72.6244705 52.8720142,70.5093737 L33.8720142,70.5093737 C33.9412397,72.6244705 34.3340545,74.7442124 35.02792,76.5093737" id="Fill-377" fill="#C36831" fill-rule="evenodd"></path>
                        <path d="M34.7636943,63.2339441 C34.0698288,65.000198 33.6786239,67.116297 33.6110083,69.2339441 L52.6110083,69.2339441 C52.5450025,67.116297 52.1489679,65.000198 51.4551025,63.2339441 L34.7636943,63.2339441 Z" id="Fill-378" fill="#C36831" fill-rule="evenodd"></path>
                        <path d="M53.5452321,76.7599043 L57.5452321,76.7599043 L57.5452321,70.7599043 L54.567368,70.7599043 C54.5083389,72.8750011 54.1603777,74.994743 53.5452321,76.7599043" id="Fill-379" fill="#C36831" fill-rule="evenodd"></path>
                        <path d="M53.2842262,63.4844747 C53.89985,65.2507286 54.2449724,67.3668277 54.3040474,69.4844747 L57.2842262,69.4844747 L57.2842262,63.4844747 L53.2842262,63.4844747 Z" id="Fill-380" fill="#C36831" fill-rule="evenodd"></path>
                    </g>
                </g>
            </g>
        </g>
    </g>
</svg>